<svg xmlns="http://www.w3.org/2000/svg" width="189" viewBox="0 0 141.75 141.75" height="189" version="1.0"><defs><clipPath id="a"><path d="M0 0h141.5v141.5H0Zm0 0"/></clipPath></defs><g clip-path="url(#a)"><path fill="#fff" d="M0 0h141.5v141.5H0Zm0 0"/><path fill="#fff" d="M0 0h141.5v141.5H0Zm0 0"/><path fill="#fff" d="M277.11.7c-8.34-6.954-19.005-10.313-30.41-11.845-15.825-2.128-33.09-.718-46.876-1.52-35.527-2.054-71.097-3.323-106.656-3.19-35.594.132-71.168 1.664-106.676 5.203-16.98 1.695-39.332 2.156-57.207 9.113-12.918 5.031-23.558 13.363-28.754 27.508-2.652 7.222-3.11 15.02-2.488 22.941.863 11.008 3.84 22.266 5.309 32.414 1.89 13.043 1.925 27.375 5.015 40.547 2.192 9.348 5.89 18.117 12.59 25.57 7.258 8.063 17.625 12.036 29.016 13.793 15.527 2.391 32.976.657 45.992.828 17.797.235 35.46-.468 53.082-1.648 26.332-1.766 52.574-4.59 79.031-6.902 9.926-.867 26.54-3.973 40.652-5.313 5.653-.531 10.883-.793 15.043-.457.579 2.184 2.055 7.82 2.211 8.551.79 3.664 1.305 7.394 1.664 11.156.551 5.758.735 11.574.934 17.297.047 1.274-.484 5.684-.39 8.387.07 2.062.699 3.554 1.234 4.183.12.145 3.918 1.95 6.383-1.257 2.214-2.875 7.511-10.215 7.964-10.926a356.996 356.996 0 0 0 11.665-19.797c3.539-6.45 6.898-12.996 10.16-19.664 9.847-1.246 22.73-2.09 34.148-5.211 8.707-2.375 16.57-6.086 21.95-11.992 3.257-3.578 5.34-7.871 6.671-12.48 1.828-6.337 2.219-13.294 2.57-19.59.84-14.95 3.434-44.989-.753-67.95-2.188-12.015-6.325-22.12-13.075-27.75Zm6.831 95.304c-.324 5.793-.62 12.207-2.308 18.039-1.031 3.578-2.594 6.934-5.121 9.71-4.535 4.981-11.262 7.946-18.61 9.95-11.472 3.129-24.46 3.863-34.156 5.137a3.468 3.468 0 0 0-2.351 1.383 3.49 3.49 0 0 0-1.747 1.672c-3.324 6.808-6.746 13.492-10.355 20.074a346.875 346.875 0 0 1-11.438 19.406c-.171.273-1.09 1.566-2.27 3.188v-.063c-.202-5.86-.398-11.82-.96-17.719-.387-4.031-.945-8.031-1.785-11.96-.235-1.075-1.7-8.442-3.031-11.083-.989-1.968-2.496-2.64-3.422-2.765-4.805-.637-11.262-.418-18.317.254-14.093 1.335-30.687 4.437-40.601 5.304-26.41 2.305-52.606 5.13-78.887 6.89-17.441 1.165-34.918 1.868-52.523 1.634-12.739-.168-29.82 1.597-45.02-.746-9.723-1.5-18.676-4.668-24.871-11.555-5.883-6.543-9.055-14.277-10.98-22.484-3.043-12.977-3.04-27.102-4.903-39.954-1.45-10.004-4.406-21.101-5.258-31.957-.539-6.894-.226-13.687 2.082-19.976 4.442-12.094 13.668-19.09 24.715-23.39 17.293-6.731 38.938-7.036 55.364-8.673C22.472-7.195 57.823-8.719 93.195-8.848c35.414-.129 70.84 1.13 106.227 3.18 13.625.79 30.7-.637 46.344 1.469 10.05 1.347 19.507 4.152 26.859 10.281 7.39 6.164 10.523 18.848 11.953 32.867 2.117 20.707.074 44.406-.637 57.055Zm0 0" fill-rule="evenodd"/><path fill="#f7f7fa" d="M-14.175-14.175h170.1v170.1h-170.1z"/></g><path d="M111.668 51.238c.11.434.164 1.14.164 2.117 0 5.747-1.086 11.497-3.258 17.247-2.172 5.64-5.265 10.847-9.281 15.62-3.91 4.665-9.012 8.462-15.313 11.391-6.296 2.926-13.246 4.39-20.847 4.39-9.551 0-18.293-2.546-26.219-7.648 1.195.11 2.55.165 4.07.165 7.926 0 15.04-2.442 21.332-7.32-3.796 0-7.16-1.087-10.093-3.255-2.825-2.28-4.782-5.101-5.864-8.46 1.082.105 2.118.16 3.094.16 1.52 0 3.04-.16 4.559-.489-3.907-.867-7.16-2.875-9.77-6.02-2.605-3.144-3.91-6.726-3.91-10.738v-.324c2.39 1.41 4.941 2.168 7.656 2.278-5.105-3.473-7.656-8.247-7.656-14.32 0-3.036.816-5.91 2.445-8.622 4.235 5.313 9.391 9.543 15.47 12.692 6.187 3.144 12.757 4.878 19.706 5.207a23.567 23.567 0 0 1-.324-3.907c0-4.664 1.629-8.68 4.887-12.043 3.363-3.359 7.386-5.043 12.05-5.043 4.993 0 9.176 1.79 12.54 5.371 3.91-.761 7.546-2.117 10.914-4.07-1.301 4.016-3.797 7.16-7.489 9.438 3.254-.434 6.512-1.356 9.77-2.766a37.658 37.658 0 0 1-8.633 8.95Zm0 0" fill-opacity=".9"/></svg>