<svg width="21" height="23" fill="none" xmlns="http://www.w3.org/2000/svg"><path fill-rule="evenodd" clip-rule="evenodd" d="M9.312.373a1.897 1.897 0 0 1 1.842 0l8.277 4.599c.602.334.976.969.976 1.658v9.128c0 .689-.374 1.323-.976 1.658l-8.277 4.598a1.897 1.897 0 0 1-1.842 0l-8.277-4.598a1.897 1.897 0 0 1-.975-1.658V6.63c0-.69.373-1.324.975-1.658L9.312.373Zm1.005 1.508a.172.172 0 0 0-.168 0L1.873 6.479a.172.172 0 0 0-.089.15v9.129c0 .063.034.12.089.15l8.277 4.599a.173.173 0 0 0 .167 0l8.277-4.598a.172.172 0 0 0 .088-.151V6.63a.172.172 0 0 0-.088-.151L10.317 1.88Z" fill="#FF5A3C"/><path fill-rule="evenodd" clip-rule="evenodd" d="M4.773 11.194a5.46 5.46 0 1 1 10.92 0 5.46 5.46 0 0 1-10.92 0Zm5.46-3.736a3.736 3.736 0 1 0 0 7.472 3.736 3.736 0 0 0 0-7.472Z" fill="#FF5A3C"/></svg>