<svg xmlns="http://www.w3.org/2000/svg" xmlns:xlink="http://www.w3.org/1999/xlink" width="189" zoomAndPan="magnify" viewBox="0 0 141.75 141.750002" height="189" preserveAspectRatio="xMidYMid meet" version="1.0"><defs><clipPath id="a913f54438"><path d="M 0 0 L 141.5 0 L 141.5 141.5 L 0 141.5 Z M 0 0 " clip-rule="nonzero"/></clipPath></defs><g clip-path="url(#a913f54438)"><path fill="#ffffff" d="M 277.109375 0.699219 C 268.769531 -6.253906 258.105469 -9.613281 246.699219 -11.144531 C 230.875 -13.273438 213.609375 -11.863281 199.824219 -12.664062 C 164.296875 -14.71875 128.726562 -15.988281 93.167969 -15.855469 C 57.574219 -15.722656 22 -14.191406 -13.507812 -10.652344 C -30.488281 -8.957031 -52.839844 -8.496094 -70.714844 -1.539062 C -83.632812 3.492188 -94.273438 11.824219 -99.46875 25.96875 C -102.121094 33.191406 -102.578125 40.988281 -101.957031 48.910156 C -101.09375 59.917969 -98.117188 71.175781 -96.648438 81.324219 C -94.757812 94.367188 -94.722656 108.699219 -91.632812 121.871094 C -89.441406 131.21875 -85.742188 139.988281 -79.042969 147.441406 C -71.785156 155.503906 -61.417969 159.476562 -50.027344 161.234375 C -34.5 163.625 -17.050781 161.890625 -4.035156 162.0625 C 13.761719 162.296875 31.425781 161.59375 49.046875 160.414062 C 75.378906 158.648438 101.621094 155.824219 128.078125 153.511719 C 138.003906 152.644531 154.617188 149.539062 168.730469 148.199219 C 174.382812 147.667969 179.613281 147.40625 183.773438 147.742188 C 184.351562 149.925781 185.828125 155.5625 185.984375 156.292969 C 186.773438 159.957031 187.289062 163.6875 187.648438 167.449219 C 188.199219 173.207031 188.382812 179.023438 188.582031 184.746094 C 188.628906 186.019531 188.097656 190.429688 188.191406 193.132812 C 188.261719 195.195312 188.890625 196.6875 189.425781 197.316406 C 189.546875 197.460938 193.34375 199.265625 195.808594 196.058594 C 198.023438 193.183594 203.320312 185.84375 203.773438 185.132812 C 207.910156 178.617188 211.769531 172.027344 215.4375 165.335938 C 218.976562 158.886719 222.335938 152.339844 225.597656 145.671875 C 235.445312 144.425781 248.328125 143.582031 259.746094 140.460938 C 268.453125 138.085938 276.316406 134.375 281.695312 128.46875 C 284.953125 124.890625 287.035156 120.597656 288.367188 115.988281 C 290.195312 109.652344 290.585938 102.695312 290.9375 96.398438 C 291.777344 81.449219 294.371094 51.410156 290.183594 28.449219 C 287.996094 16.433594 283.859375 6.328125 277.109375 0.699219 Z M 283.941406 96.003906 C 283.617188 101.796875 283.320312 108.210938 281.632812 114.042969 C 280.601562 117.621094 279.039062 120.976562 276.511719 123.753906 C 271.976562 128.734375 265.25 131.699219 257.902344 133.703125 C 246.429688 136.832031 233.441406 137.566406 223.746094 138.839844 C 222.769531 138.964844 221.9375 139.488281 221.394531 140.222656 C 220.65625 140.542969 220.03125 141.117188 219.648438 141.894531 C 216.324219 148.703125 212.902344 155.386719 209.292969 161.96875 C 205.699219 168.527344 201.914062 174.988281 197.855469 181.375 C 197.683594 181.648438 196.765625 182.941406 195.585938 184.5625 L 195.585938 184.5 C 195.382812 178.640625 195.1875 172.679688 194.625 166.78125 C 194.238281 162.75 193.679688 158.75 192.839844 154.820312 C 192.605469 153.746094 191.140625 146.378906 189.808594 143.738281 C 188.820312 141.769531 187.3125 141.097656 186.386719 140.972656 C 181.582031 140.335938 175.125 140.554688 168.070312 141.226562 C 153.976562 142.5625 137.382812 145.664062 127.46875 146.53125 C 101.058594 148.835938 74.863281 151.660156 48.582031 153.421875 C 31.140625 154.585938 13.664062 155.289062 -3.941406 155.054688 C -16.679688 154.886719 -33.761719 156.652344 -48.960938 154.308594 C -58.683594 152.808594 -67.636719 149.640625 -73.832031 142.753906 C -79.714844 136.210938 -82.886719 128.476562 -84.8125 120.269531 C -87.855469 107.292969 -87.851562 93.167969 -89.714844 80.316406 C -91.164062 70.3125 -94.121094 59.214844 -94.972656 48.359375 C -95.511719 41.464844 -95.199219 34.671875 -92.890625 28.382812 C -88.449219 16.289062 -79.222656 9.292969 -68.175781 4.992188 C -50.882812 -1.738281 -29.238281 -2.042969 -12.8125 -3.679688 C 22.472656 -7.195312 57.824219 -8.71875 93.195312 -8.847656 C 128.609375 -8.976562 164.035156 -7.71875 199.421875 -5.667969 C 213.046875 -4.878906 230.121094 -6.304688 245.765625 -4.199219 C 255.816406 -2.851562 265.273438 -0.046875 272.625 6.082031 C 280.015625 12.246094 283.148438 24.929688 284.578125 38.949219 C 286.695312 59.65625 284.652344 83.355469 283.941406 96.003906 Z M 283.941406 96.003906 " fill-opacity="1" fill-rule="evenodd"/><path fill="#ff5a3c" d="M 120.777344 20.730469 C 107.417969 7.367188 89.652344 0.0078125 70.753906 0.0078125 C 51.855469 0.0078125 34.09375 7.367188 20.730469 20.730469 C 7.363281 34.089844 0.0078125 51.855469 0.0078125 70.753906 C 0.0078125 89.652344 7.367188 107.414062 20.730469 120.777344 C 34.089844 134.140625 51.855469 141.496094 70.753906 141.496094 C 89.652344 141.496094 107.414062 134.136719 120.777344 120.777344 C 134.140625 107.417969 141.496094 89.652344 141.496094 70.753906 C 141.496094 51.855469 134.136719 34.09375 120.777344 20.730469 Z M 106.242188 100.042969 C 106.242188 103.421875 103.496094 106.171875 100.117188 106.171875 L 41.351562 106.171875 C 37.972656 106.171875 35.222656 103.421875 35.222656 100.042969 L 35.222656 98.546875 C 35.222656 95.167969 37.972656 92.421875 41.351562 92.421875 L 100.117188 92.421875 C 103.496094 92.421875 106.242188 95.167969 106.242188 98.546875 Z M 106.242188 71.5 C 106.242188 74.878906 103.496094 77.625 100.117188 77.625 L 41.351562 77.625 C 37.972656 77.625 35.222656 74.878906 35.222656 71.5 L 35.222656 70.003906 C 35.222656 66.625 37.972656 63.875 41.351562 63.875 L 100.117188 63.875 C 103.496094 63.875 106.242188 66.625 106.242188 70.003906 Z M 106.242188 42.953125 C 106.242188 46.335938 103.496094 49.082031 100.117188 49.082031 L 41.351562 49.082031 C 37.972656 49.082031 35.222656 46.335938 35.222656 42.953125 L 35.222656 41.460938 C 35.222656 38.082031 37.972656 35.332031 41.351562 35.332031 L 100.117188 35.332031 C 103.496094 35.332031 106.242188 38.082031 106.242188 41.460938 Z M 106.242188 42.953125 " fill-opacity="1" fill-rule="nonzero"/></g></svg>