<svg width="14" height="15" fill="none" xmlns="http://www.w3.org/2000/svg"><path d="M1.83 13.267h2.25v-2.25H1.83v2.25Zm2.75 0h2.5v-2.25h-2.5v2.25Zm-2.75-2.75h2.25v-2.5H1.83v2.5Zm2.75 0h2.5v-2.5h-2.5v2.5Zm-2.75-3h2.25v-2.25H1.83v2.25Zm5.75 5.75h2.5v-2.25h-2.5v2.25Zm-3-5.75h2.5v-2.25h-2.5v2.25Zm6 5.75h2.25v-2.25h-2.25v2.25Zm-3-2.75h2.5v-2.5h-2.5v2.5Zm-2.75-6.75v-2.25a.223.223 0 0 0-.078-.172.223.223 0 0 0-.171-.078h-.5a.247.247 0 0 0-.18.078.234.234 0 0 0-.07.172v2.25a.26.26 0 0 0 .07.18.26.26 0 0 0 .18.07h.5a.234.234 0 0 0 .171-.07.247.247 0 0 0 .079-.18Zm5.75 6.75h2.25v-2.5h-2.25v2.5Zm-3-3h2.5v-2.25h-2.5v2.25Zm3 0h2.25v-2.25h-2.25v2.25Zm.25-3.75v-2.25a.223.223 0 0 0-.078-.172.222.222 0 0 0-.171-.078h-.5a.247.247 0 0 0-.18.078.234.234 0 0 0-.07.172v2.25a.26.26 0 0 0 .07.18.26.26 0 0 0 .18.07h.5a.234.234 0 0 0 .171-.07.247.247 0 0 0 .079-.18Zm3-.5v10c0 .27-.098.505-.296.703a.961.961 0 0 1-.703.297h-11a.961.961 0 0 1-.704-.297.961.961 0 0 1-.296-.703v-10c0-.27.099-.505.296-.703a.961.961 0 0 1 .704-.297h1v-.75c0-.344.122-.638.367-.883s.539-.367.883-.367h.5a1.2 1.2 0 0 1 .882.367c.245.245.368.54.368.883v.75h3v-.75c0-.344.122-.638.367-.883s.539-.367.883-.367h.5a1.2 1.2 0 0 1 .882.367c.245.245.368.54.368.883v.75h1c.27 0 .505.099.703.297a.961.961 0 0 1 .297.703Z" fill="#FF5A3C"/></svg>