<svg width="15" height="13" fill="none" xmlns="http://www.w3.org/2000/svg"><path d="M5.04 6.323a1.04 1.04 0 0 0 .317-.762c0-.296-.106-.547-.318-.754a1.012 1.012 0 0 0-.753-.318c-.296 0-.55.106-.762.318a1.03 1.03 0 0 0-.31.754 1.056 1.056 0 0 0 1.072 1.072c.295 0 .547-.104.753-.31Zm3.213 0a1.04 1.04 0 0 0 .318-.762c0-.296-.106-.547-.318-.754A1.012 1.012 0 0 0 7.5 4.49c-.296 0-.55.106-.762.318a1.03 1.03 0 0 0-.31.754A1.056 1.056 0 0 0 7.5 6.634c.296 0 .547-.104.753-.31Zm3.215 0c.212-.213.318-.466.318-.762s-.106-.547-.318-.754a1.012 1.012 0 0 0-.754-.318c-.296 0-.55.106-.761.318-.207.207-.31.458-.31.754s.103.55.31.762c.212.206.466.31.761.31.296 0 .547-.104.754-.31Zm2.527-3.45C14.665 3.695 15 4.59 15 5.562c0 .97-.335 1.87-1.005 2.695-.67.82-1.579 1.47-2.728 1.95-1.15.475-2.405.712-3.767.712-.614 0-1.203-.05-1.766-.15-.966.965-2.18 1.604-3.641 1.916a7.41 7.41 0 0 1-.72.109.273.273 0 0 1-.184-.05.265.265 0 0 1-.11-.15c-.022-.085.034-.188.168-.31.028-.028.092-.09.193-.185a4.3 4.3 0 0 0 .217-.192 4 4 0 0 0 .193-.218c.095-.1.162-.187.2-.26a6.01 6.01 0 0 0 .177-.31 2.05 2.05 0 0 0 .167-.4c.039-.135.078-.294.117-.478.045-.19.081-.393.109-.611-.815-.503-1.457-1.106-1.925-1.81C.232 7.112 0 6.359 0 5.56c0-.971.335-1.867 1.004-2.687.67-.826 1.58-1.476 2.73-1.95C4.882.444 6.137.204 7.5.204s2.617.24 3.767.72c1.15.474 2.059 1.124 2.729 1.95Z" fill="#FF5A3C"/></svg>