<svg xmlns="http://www.w3.org/2000/svg" width="189" viewBox="0 0 141.75 141.75" height="189" version="1.0"><defs><clipPath id="a"><path d="M0 0h141.5v141.5H0Zm0 0"/></clipPath><clipPath id="b"><path d="M44.11 43H97v54H44.11Zm0 0"/></clipPath></defs><g clip-path="url(#a)"><path fill="#fff" d="M0 0h141.5v141.5H0Zm0 0"/><path fill="#fff" d="M0 0h141.5v141.5H0Zm0 0"/><path fill="#fff" d="M277.11.7c-8.34-6.954-19.005-10.313-30.41-11.845-15.825-2.128-33.09-.718-46.876-1.52-35.527-2.054-71.097-3.323-106.656-3.19-35.594.132-71.168 1.664-106.676 5.203-16.98 1.695-39.332 2.156-57.207 9.113-12.918 5.031-23.558 13.363-28.754 27.508-2.652 7.222-3.11 15.02-2.488 22.941.863 11.008 3.84 22.266 5.309 32.414 1.89 13.043 1.925 27.375 5.015 40.547 2.192 9.348 5.89 18.117 12.59 25.57 7.258 8.063 17.625 12.036 29.016 13.793 15.527 2.391 32.976.657 45.992.828 17.797.235 35.46-.468 53.082-1.648 26.332-1.766 52.574-4.59 79.031-6.902 9.926-.867 26.54-3.973 40.652-5.313 5.653-.531 10.883-.793 15.043-.457.579 2.184 2.055 7.82 2.211 8.551.79 3.664 1.305 7.394 1.664 11.156.551 5.758.735 11.574.934 17.297.047 1.274-.484 5.684-.39 8.387.07 2.062.699 3.554 1.234 4.183.12.145 3.918 1.95 6.383-1.257 2.214-2.875 7.511-10.215 7.964-10.926a356.996 356.996 0 0 0 11.665-19.797c3.539-6.45 6.898-12.996 10.16-19.664 9.847-1.246 22.73-2.09 34.148-5.211 8.707-2.375 16.57-6.086 21.95-11.992 3.257-3.578 5.34-7.871 6.671-12.48 1.828-6.337 2.219-13.294 2.57-19.59.84-14.95 3.434-44.989-.753-67.95-2.188-12.015-6.325-22.12-13.075-27.75Zm6.831 95.304c-.324 5.793-.62 12.207-2.308 18.039-1.031 3.578-2.594 6.934-5.121 9.71-4.535 4.981-11.262 7.946-18.61 9.95-11.472 3.129-24.46 3.863-34.156 5.137a3.468 3.468 0 0 0-2.351 1.383 3.49 3.49 0 0 0-1.747 1.672c-3.324 6.808-6.746 13.492-10.355 20.074a346.875 346.875 0 0 1-11.438 19.406c-.171.273-1.09 1.566-2.27 3.188v-.063c-.202-5.86-.398-11.82-.96-17.719-.387-4.031-.945-8.031-1.785-11.96-.235-1.075-1.7-8.442-3.031-11.083-.989-1.968-2.496-2.64-3.422-2.765-4.805-.637-11.262-.418-18.317.254-14.093 1.335-30.687 4.437-40.601 5.304-26.41 2.305-52.606 5.13-78.887 6.89-17.441 1.165-34.918 1.868-52.523 1.634-12.739-.168-29.82 1.597-45.02-.746-9.723-1.5-18.676-4.668-24.871-11.555-5.883-6.543-9.055-14.277-10.98-22.484-3.043-12.977-3.04-27.102-4.903-39.954-1.45-10.004-4.406-21.101-5.258-31.957-.539-6.894-.226-13.687 2.082-19.976 4.442-12.094 13.668-19.09 24.715-23.39 17.293-6.731 38.938-7.036 55.364-8.673C22.472-7.195 57.823-8.719 93.195-8.848c35.414-.129 70.84 1.13 106.227 3.18 13.625.79 30.7-.637 46.344 1.469 10.05 1.347 19.507 4.152 26.859 10.281 7.39 6.164 10.523 18.848 11.953 32.867 2.117 20.707.074 44.406-.637 57.055Zm0 0" fill-rule="evenodd"/><path fill="#ff5a3c" d="M-14.175-14.175h170.1v170.1h-170.1z"/></g><g clip-path="url(#b)"><path fill="#fff" d="M60.934 60.527c2.648-2.668 5.84-4 9.578-4 3.734 0 6.89 1.332 9.457 4 2.648 2.586 3.972 5.766 3.972 9.532 0 3.765-1.324 6.98-3.972 9.648-2.567 2.59-5.723 3.883-9.457 3.883-3.739 0-6.93-1.293-9.578-3.883-2.57-2.668-3.852-5.883-3.852-9.648 0-3.766 1.281-6.946 3.852-9.532Zm3.386 15.766c1.715 1.727 3.778 2.59 6.192 2.59s4.476-.863 6.187-2.59c1.715-1.727 2.57-3.805 2.57-6.234 0-2.434-.855-4.512-2.57-6.239-1.71-1.726-3.773-2.59-6.187-2.59s-4.477.864-6.192 2.59c-1.71 1.727-2.57 3.805-2.57 6.239 0 2.43.86 4.507 2.57 6.234ZM86.625 53.82c.625.547.938 1.254.938 2.117 0 .864-.313 1.61-.938 2.235-.543.629-1.242.941-2.102.941-.855 0-1.593-.312-2.218-.941-.621-.625-.934-1.371-.934-2.234 0-.864.313-1.57.934-2.118.625-.629 1.363-.941 2.218-.941.86 0 1.559.312 2.102.941Zm9.93 5.41c.078 2.122.117 5.727.117 10.829 0 5.097-.04 8.707-.117 10.824-.235 4.785-1.676 8.512-4.32 11.18-2.57 2.585-6.231 3.96-10.981 4.117-2.102.156-5.684.234-10.742.234-5.063 0-8.645-.078-10.746-.234-4.75-.235-8.446-1.649-11.094-4.235-2.57-2.59-3.934-6.277-4.086-11.062-.156-2.117-.234-5.727-.234-10.824 0-5.102.078-8.746.234-10.946.23-4.707 1.633-8.355 4.203-10.941 2.57-2.668 6.227-4.121 10.977-4.356 2.101-.078 5.683-.117 10.746-.117 5.058 0 8.64.04 10.742.117 4.75.235 8.41 1.688 10.98 4.356 2.645 2.586 4.086 6.273 4.32 11.058Zm-5.606 26.36c.23-.63.426-1.414.582-2.352.156-1.023.274-2.199.352-3.531A64.84 64.84 0 0 0 92 76.293V63.82c0-.863-.04-1.96-.117-3.293-.078-1.414-.195-2.59-.352-3.53-.156-1.02-.351-1.845-.582-2.474-.933-2.43-2.61-4.117-5.023-5.058-.621-.235-1.442-.43-2.453-.586-.934-.16-2.102-.277-3.504-.356a57.31 57.31 0 0 0-3.27-.117H64.32c-.855 0-1.984.04-3.386.117a36.409 36.409 0 0 0-3.504.356c-.934.156-1.711.351-2.336.586-2.414.941-4.086 2.629-5.02 5.058-.234.63-.43 1.454-.586 2.473-.156.941-.27 2.117-.347 3.531a58.273 58.273 0 0 0-.118 3.293v12.473c0 .863.04 2 .118 3.414a38.73 38.73 0 0 0 .347 3.531c.157.938.352 1.723.586 2.352 1.012 2.433 2.684 4.117 5.02 5.058.625.239 1.402.434 2.336.59a37.81 37.81 0 0 0 3.504.352c1.402.078 2.492.117 3.27.117h12.495c.86 0 1.95-.039 3.27-.117 1.402-.078 2.57-.195 3.504-.352 1.011-.156 1.832-.351 2.453-.59 2.414-1.02 4.09-2.707 5.023-5.058Zm0 0"/></g></svg>