<svg width="36" height="37" fill="none" xmlns="http://www.w3.org/2000/svg"><rect x=".5" y="1.303" width="35" height="35" rx="3.5" stroke="#FF5A3C"/><path d="M20.093 14.824h1.609a.26.26 0 0 0 .268-.253v-1.515a.26.26 0 0 0-.268-.253h-1.609c-1.625 0-2.948 1.246-2.948 2.779v1.768h-1.877a.26.26 0 0 0-.268.253v1.515c0 .14.12.253.268.253h1.877v5.304c0 .14.12.253.268.253h1.608a.26.26 0 0 0 .268-.253v-5.304h1.877c.115 0 .217-.07.254-.173l.536-1.516a.241.241 0 0 0-.037-.227.275.275 0 0 0-.217-.105h-2.413v-1.768c0-.418.361-.758.804-.758Z" fill="#FF5A3C"/></svg>