<svg width="36" height="37" fill="none" xmlns="http://www.w3.org/2000/svg"><rect x=".5" y="1.303" width="35" height="35" rx="3.5" stroke="#FF5A3C"/><path d="M24.22 15.068a.262.262 0 0 0-.32-.058 2.278 2.278 0 0 1-.34.127c.188-.258.339-.546.406-.805a.28.28 0 0 0-.106-.295.262.262 0 0 0-.306 0c-.145.104-.844.416-1.285.517-1-.9-2.161-.993-3.37-.268-.982.59-1.195 1.79-1.154 2.52-2.248-.222-3.645-1.444-4.432-2.454a.27.27 0 0 0-.227-.103.268.268 0 0 0-.211.134 2.728 2.728 0 0 0-.297 2.065c.097.385.267.724.464.999a1.45 1.45 0 0 1-.272-.18.262.262 0 0 0-.283-.035.276.276 0 0 0-.152.249c0 1.21.736 2.018 1.424 2.44a1.937 1.937 0 0 1-.345-.075.26.26 0 0 0-.278.081.28.28 0 0 0-.043.295 2.937 2.937 0 0 0 2.024 1.702c-.79.478-1.85.712-2.819.597a.265.265 0 0 0-.285.188c-.04.124.013.26.123.324 1.47.85 2.8 1.153 3.95 1.153 1.671 0 2.962-.642 3.747-1.179 2.118-1.446 3.437-4.04 3.254-6.363.339-.258.846-.733 1.161-1.245a.278.278 0 0 0-.028-.331Z" fill="#FF5A3C"/></svg>