<svg width="13" height="12" fill="none" xmlns="http://www.w3.org/2000/svg"><path d="M7.12 11.59c.933-.121 1.75-1.053 2.264-2.422a11.585 11.585 0 0 0-2.263-.253v2.676Zm1.491-.216.165-.048.136-.043.16-.055.135-.051.155-.063.134-.058.15-.07.13-.064.145-.077.124-.072.14-.082.125-.078.136-.092.124-.083.133-.098.115-.09c.043-.033.085-.07.124-.105l.11-.095.124-.113c.042-.038.07-.066.105-.1l.019-.02a7.548 7.548 0 0 0-1.487-.547 5.117 5.117 0 0 1-1.393 2.155l.054-.012.137-.04Zm4.385-5.37h-2.611c-.01.973-.158 1.94-.44 2.872a7.799 7.799 0 0 1 1.653.627 5.645 5.645 0 0 0 1.398-3.498v-.001ZM7.12 5.588h2.83a9.931 9.931 0 0 0-.428-2.77 12.01 12.01 0 0 1-2.4.273l-.001 2.497ZM7.12 0v2.68c.762-.01 1.52-.095 2.264-.254C8.87 1.057 8.054.13 7.121.004V0Zm.003 8.5a12.02 12.02 0 0 1 2.4.274c.273-.9.418-1.832.429-2.77H7.123V8.5Zm4.475-6.41a7.86 7.86 0 0 1-1.653.627c.282.933.43 1.9.44 2.872h2.611a5.646 5.646 0 0 0-1.398-3.498V2.09Zm-.292-.315-.019-.02c-.034-.034-.07-.067-.105-.1-.035-.032-.08-.076-.124-.113l-.11-.094-.124-.106c-.04-.034-.077-.06-.114-.089a3.686 3.686 0 0 0-.133-.098l-.123-.083-.138-.093-.124-.076-.142-.084-.124-.071L9.78.67 9.65.605l-.153-.07-.133-.057-.158-.063-.135-.05L8.91.31 8.775.264 8.61.217 8.474.18 8.42.168a5.12 5.12 0 0 1 1.393 2.155 7.532 7.532 0 0 0 1.494-.548h-.001ZM.81 5.588h2.612a10.3 10.3 0 0 1 .44-2.872 7.788 7.788 0 0 1-1.653-.627 5.645 5.645 0 0 0-1.399 3.5Zm5.876 6.004v-2.68c-.76.01-1.52.095-2.263.254.514 1.372 1.33 2.3 2.263 2.426ZM6.68 6.004H3.852a9.93 9.93 0 0 0 .428 2.77 12.003 12.003 0 0 1 2.4-.273V6.004ZM6.686 0c-.931.122-1.749 1.054-2.263 2.423a11.63 11.63 0 0 0 2.263.253V0ZM6.68 3.091a12.012 12.012 0 0 1-2.4-.273 9.928 9.928 0 0 0-.428 2.77H6.68V3.091ZM5.387.168 5.334.18l-.138.038-.163.048-.138.045-.16.055-.135.05-.155.063-.134.058-.15.07-.13.064-.144.077-.124.072-.142.083-.123.078-.137.091-.124.083c-.044.032-.086.066-.132.099a2.082 2.082 0 0 0-.115.088c-.038.03-.086.07-.124.105-.039.035-.075.062-.112.095l-.124.113c-.042.038-.07.066-.105.1l-.019.02c.475.234.973.417 1.487.547A5.117 5.117 0 0 1 5.384.168h.003ZM2.625 9.935c.041.038.08.077.124.114l.11.094c.043.035.085.071.124.105l.114.09.134.1.124.082.138.093.123.076.143.084.124.071.146.077.13.064.152.071.133.057.156.062.135.051.16.055.136.044.165.048.136.038.054.012a5.12 5.12 0 0 1-1.393-2.155 7.535 7.535 0 0 0-1.487.548l.019.02c.03.034.064.067.1.1Zm-.416-.433a7.798 7.798 0 0 1 1.653-.627 10.3 10.3 0 0 1-.44-2.872H.81a5.646 5.646 0 0 0 1.399 3.5Z" fill="#FF5A3C"/></svg>