<svg width="16" height="13" fill="none" xmlns="http://www.w3.org/2000/svg"><path d="M13.534 3.328a6.515 6.515 0 0 0 1.523-1.582 5.765 5.765 0 0 1-1.758.469 3.006 3.006 0 0 0 1.348-1.7 6.498 6.498 0 0 1-1.934.762 3.077 3.077 0 0 0-2.255-.966A3.076 3.076 0 0 0 7.38 3.387c0 .234.03.468.088.703A8.925 8.925 0 0 1 1.112.867c-.264.44-.41.967-.41 1.553 0 1.055.527 1.992 1.377 2.549-.498-.03-.996-.147-1.407-.381v.03a3.08 3.08 0 0 0 2.461 3.017 3.434 3.434 0 0 1-.79.117c-.206 0-.382-.03-.587-.059a3.061 3.061 0 0 0 2.871 2.139A6.185 6.185 0 0 1 .82 11.15c-.264 0-.498-.029-.733-.058 1.348.879 2.96 1.377 4.717 1.377 5.654 0 8.73-4.658 8.73-8.73v-.41Z" fill="#FF5A3C"/></svg>