<svg width="13" height="16" fill="none" xmlns="http://www.w3.org/2000/svg"><path fill-rule="evenodd" clip-rule="evenodd" d="M3.173 7.083a3.365 3.365 0 1 1 6.73 0 3.365 3.365 0 0 1-6.73 0Zm3.365-2.302a2.302 2.302 0 1 0 0 4.604 2.302 2.302 0 0 0 0-4.604Z" fill="#FF5A3C"/><path fill-rule="evenodd" clip-rule="evenodd" d="M.534 6.273A5.87 5.87 0 0 1 6.384.885h.307a5.87 5.87 0 0 1 5.85 5.388 6.335 6.335 0 0 1-1.409 4.53l-3.395 4.153a1.549 1.549 0 0 1-2.398 0l-3.396-4.152a6.335 6.335 0 0 1-1.409-4.53Zm5.85-4.325a4.808 4.808 0 0 0-4.79 4.412 5.272 5.272 0 0 0 1.173 3.77l3.395 4.152a.487.487 0 0 0 .753 0l3.395-4.152a5.272 5.272 0 0 0 1.173-3.77 4.808 4.808 0 0 0-4.791-4.413h-.306Z" fill="#FF5A3C"/></svg>