<svg width="15" height="15" fill="none" xmlns="http://www.w3.org/2000/svg"><path d="M14.678 7.375A7.264 7.264 0 0 0 7.412.109 7.264 7.264 0 0 0 .146 7.375a7.232 7.232 0 0 0 4.6 6.768c-.059-.557-.117-1.436.03-2.08.146-.557.849-3.604.849-3.604s-.205-.44-.205-1.084c0-.996.586-1.758 1.318-1.758.616 0 .908.469.908 1.026 0 .615-.41 1.552-.615 2.431-.146.703.381 1.29 1.084 1.29 1.29 0 2.285-1.348 2.285-3.311 0-1.758-1.26-2.96-3.017-2.96-2.08 0-3.281 1.553-3.281 3.136 0 .644.234 1.318.527 1.67.059.058.059.146.059.205-.06.234-.206.732-.206.82-.029.146-.117.176-.263.117-.908-.44-1.465-1.758-1.465-2.842 0-2.285 1.67-4.394 4.805-4.394 2.52 0 4.482 1.816 4.482 4.218 0 2.49-1.582 4.512-3.78 4.512-.732 0-1.435-.38-1.67-.85 0 0-.35 1.407-.439 1.73-.175.644-.615 1.435-.908 1.903.674.235 1.406.323 2.168.323a7.264 7.264 0 0 0 7.266-7.266Z" fill="#fff"/></svg>