<svg width="16" height="13" fill="none" xmlns="http://www.w3.org/2000/svg"><path fill-rule="evenodd" clip-rule="evenodd" d="M.336 3.613c-.233 2.06-.223 4.437.102 6.49.18 1.135 1.155 2.005 2.36 2.105l1.258.104a47.93 47.93 0 0 0 7.888 0l1.258-.104c1.204-.1 2.18-.97 2.36-2.106.325-2.052.335-4.428.102-6.489a25.16 25.16 0 0 0-.102-.716c-.18-1.135-1.156-2.006-2.36-2.105L11.944.688a47.927 47.927 0 0 0-7.888 0L2.798.792c-1.205.1-2.18.97-2.36 2.105a25.16 25.16 0 0 0-.102.716ZM4.164 1.87a46.78 46.78 0 0 1 7.671 0l1.259.104c.629.052 1.138.506 1.232 1.099l.028.185L9.72 5.705a3.705 3.705 0 0 1-3.44 0L1.646 3.259l.028-.185c.094-.593.603-1.047 1.232-1.1l1.258-.103Zm10.343 2.665a21.894 21.894 0 0 1-.181 5.39c-.094.593-.603 1.047-1.232 1.099l-1.259.104c-2.552.21-5.118.21-7.67 0l-1.26-.104c-.628-.052-1.137-.506-1.23-1.1a21.898 21.898 0 0 1-.182-5.388l4.18 2.206a5.013 5.013 0 0 0 4.654 0l4.18-2.207Z" fill="#FF5A3C"/></svg>