<svg width="16" height="13" fill="none" xmlns="http://www.w3.org/2000/svg"><path d="M5.46 6.454a1.04 1.04 0 0 0 .318-.762c0-.296-.106-.547-.319-.753a1.012 1.012 0 0 0-.753-.319c-.296 0-.55.107-.762.319-.206.206-.31.457-.31.753a1.056 1.056 0 0 0 1.072 1.072c.296 0 .547-.104.753-.31Zm3.214 0a1.04 1.04 0 0 0 .318-.762 1.01 1.01 0 0 0-.318-.753 1.012 1.012 0 0 0-.754-.319c-.295 0-.55.107-.761.319-.207.206-.31.457-.31.753s.103.55.31.762c.212.206.466.31.761.31.296 0 .547-.104.754-.31Zm3.214 0a1.04 1.04 0 0 0 .318-.762 1.01 1.01 0 0 0-.318-.753 1.012 1.012 0 0 0-.753-.319c-.296 0-.55.107-.762.319-.207.206-.31.457-.31.753s.103.55.31.762c.212.206.466.31.762.31s.547-.104.753-.31Zm2.528-3.449c.67.82 1.004 1.716 1.004 2.687 0 .97-.334 1.87-1.004 2.695-.67.82-1.58 1.47-2.729 1.95-1.15.475-2.405.712-3.767.712-.613 0-1.202-.05-1.766-.15-.965.965-2.179 1.604-3.641 1.916-.29.056-.53.092-.72.11a.272.272 0 0 1-.184-.051.265.265 0 0 1-.109-.15c-.022-.085.034-.188.168-.31l.192-.185a3.97 3.97 0 0 0 .218-.192 4 4 0 0 0 .192-.218c.095-.1.162-.187.201-.26.045-.072.103-.175.176-.309a2.05 2.05 0 0 0 .167-.402 6.17 6.17 0 0 0 .118-.477c.044-.19.08-.393.108-.611-.814-.502-1.456-1.105-1.925-1.808C.652 7.243.42 6.49.42 5.692c0-.971.335-1.867 1.005-2.687.67-.826 1.58-1.476 2.729-1.95 1.15-.48 2.405-.72 3.766-.72 1.362 0 2.618.24 3.767.72 1.15.474 2.06 1.124 2.729 1.95Z" fill="#fff"/></svg>