<svg width="75" height="66" fill="none" xmlns="http://www.w3.org/2000/svg"><path d="M67.969 32.875H56.25V23.5c0-5.127 4.102-9.375 9.375-9.375h1.172c1.904 0 3.516-1.465 3.516-3.516V3.58c0-1.905-1.612-3.517-3.516-3.517h-1.172C52.588.063 42.187 10.61 42.187 23.5v35.156c0 3.955 3.077 7.032 7.032 7.032h18.75c3.808 0 7.031-3.077 7.031-7.032v-18.75c0-3.808-3.223-7.031-7.031-7.031Zm-42.188 0H14.063V23.5c0-5.127 4.101-9.375 9.374-9.375h1.172c1.905 0 3.516-1.465 3.516-3.516V3.58c0-1.905-1.611-3.517-3.516-3.517h-1.172C10.4.063 0 10.61 0 23.5v35.156c0 3.955 3.076 7.032 7.031 7.032h18.75c3.809 0 7.032-3.077 7.032-7.032v-18.75c0-3.808-3.223-7.031-7.032-7.031Z" fill="#fff"/></svg>