<svg width="15" height="12" fill="none" xmlns="http://www.w3.org/2000/svg"><path d="M3.983 4.72a.583.583 0 0 0 0 .867L8.108 9.15c.351.304.937.047.937-.446V6.736c2.531.304 3.54 1.383 2.625 4.265-.117.375.352.68.656.446 1.032-.75 1.97-2.18 1.97-3.61 0-3.093-2.227-4.054-5.25-4.312V1.603c0-.492-.587-.75-.938-.445L3.983 4.72Zm-3 .867L5.108 9.15c.351.304.937.047.937-.446v-.351L3.49 6.15a1.32 1.32 0 0 1-.468-.985s.023 0 .023-.023c0-.375.164-.75.445-.984l2.555-2.204v-.351c0-.492-.586-.75-.937-.445L.983 4.72a.583.583 0 0 0 0 .867Z" fill="#071C1F"/></svg>