<svg width="13" height="11" fill="none" xmlns="http://www.w3.org/2000/svg"><path d="m11.716 3.93-3.689-.516L6.374.18A.392.392 0 0 0 6.23.048a.412.412 0 0 0-.533.133L4.043 3.414l-3.69.517a.365.365 0 0 0-.182.072.342.342 0 0 0-.114.154.327.327 0 0 0 .085.354l2.684 2.521-.637 3.566a.344.344 0 0 0 .03.192.37.37 0 0 0 .131.149.385.385 0 0 0 .39.016l3.295-1.672 3.295 1.67a.387.387 0 0 0 .39-.016.362.362 0 0 0 .13-.148.344.344 0 0 0 .03-.192l-.632-3.563 2.684-2.521a.328.328 0 0 0 .085-.354.342.342 0 0 0-.114-.155.365.365 0 0 0-.183-.072l-.004-.001Z" fill="#FFC107"/></svg>