<svg width="16" height="14" fill="none" xmlns="http://www.w3.org/2000/svg"><path d="M14.38 3.75a6.95 6.95 0 0 0 1.626-1.688 6.15 6.15 0 0 1-1.875.5A3.206 3.206 0 0 0 15.568.75a6.93 6.93 0 0 1-2.062.813A3.281 3.281 0 0 0 11.099.53a3.28 3.28 0 0 0-3.28 3.281c0 .25.03.5.093.75A9.52 9.52 0 0 1 1.13 1.126a3.192 3.192 0 0 0-.438 1.656 3.23 3.23 0 0 0 1.469 2.719c-.531-.031-1.063-.156-1.5-.406v.031a3.285 3.285 0 0 0 2.625 3.219c-.25.062-.563.125-.844.125-.219 0-.406-.031-.625-.063a3.265 3.265 0 0 0 3.063 2.281 6.597 6.597 0 0 1-4.063 1.407c-.281 0-.531-.031-.781-.063 1.437.938 3.156 1.469 5.031 1.469 6.031 0 9.313-4.969 9.313-9.313V3.75Z" fill="#071C1F"/></svg>