<svg width="15" height="15" fill="none" xmlns="http://www.w3.org/2000/svg"><path d="M7.037 3.406c-2 0-3.594 1.625-3.594 3.594 0 2 1.594 3.594 3.594 3.594A3.594 3.594 0 0 0 10.63 7c0-1.969-1.625-3.594-3.594-3.594Zm0 5.938A2.34 2.34 0 0 1 4.693 7c0-1.281 1.031-2.313 2.344-2.313A2.307 2.307 0 0 1 9.349 7c0 1.313-1.03 2.344-2.312 2.344Zm4.562-6.063a.84.84 0 0 0-.843-.844.84.84 0 0 0-.844.844.84.84 0 0 0 .844.844.84.84 0 0 0 .843-.844Zm2.375.844C13.912 3 13.662 2 12.85 1.187 12.037.375 11.037.125 9.912.063 8.756 0 5.287 0 4.13.063 3.006.126 2.037.376 1.193 1.188.381 2 .131 3 .068 4.126c-.062 1.155-.062 4.624 0 5.78.063 1.125.313 2.094 1.125 2.938.844.812 1.813 1.062 2.938 1.125 1.156.062 4.625.062 5.78 0 1.126-.063 2.126-.313 2.938-1.125.813-.844 1.063-1.813 1.125-2.938.063-1.156.063-4.625 0-5.781Zm-1.5 7c-.218.625-.718 1.094-1.312 1.344-.938.375-3.125.281-4.125.281-1.031 0-3.219.094-4.125-.281a2.37 2.37 0 0 1-1.344-1.344c-.375-.906-.281-3.094-.281-4.125 0-1-.094-3.188.281-4.125a2.41 2.41 0 0 1 1.344-1.313c.906-.375 3.094-.28 4.125-.28 1 0 3.187-.095 4.125.28.594.22 1.062.72 1.312 1.313.375.938.282 3.125.282 4.125 0 1.031.093 3.219-.282 4.125Z" fill="#071C1F"/></svg>