<svg width="16" height="16" fill="none" xmlns="http://www.w3.org/2000/svg"><path d="M15.537 8A7.749 7.749 0 0 0 7.787.25 7.749 7.749 0 0 0 .037 8a7.714 7.714 0 0 0 4.906 7.219c-.062-.594-.125-1.531.031-2.219.157-.594.907-3.844.907-3.844S5.66 8.687 5.66 8c0-1.063.626-1.875 1.407-1.875.656 0 .969.5.969 1.094 0 .656-.438 1.656-.656 2.593-.157.75.406 1.376 1.156 1.376 1.375 0 2.437-1.438 2.437-3.532 0-1.875-1.343-3.156-3.218-3.156-2.22 0-3.5 1.656-3.5 3.344 0 .687.25 1.406.562 1.781.063.063.063.156.063.219-.063.25-.22.781-.22.875-.03.156-.124.187-.28.125-.97-.469-1.563-1.875-1.563-3.031 0-2.438 1.781-4.688 5.125-4.688 2.688 0 4.781 1.938 4.781 4.5 0 2.656-1.687 4.813-4.03 4.813-.782 0-1.532-.407-1.782-.907 0 0-.375 1.5-.469 1.844-.187.688-.656 1.531-.969 2.031.72.25 1.5.344 2.313.344A7.749 7.749 0 0 0 15.537 8Z" fill="#071C1F"/></svg>